<svg xmlns="http://www.w3.org/2000/svg" width="20" height="20" fill="none">
  <path stroke="#CC9C53" stroke-linecap="round" stroke-linejoin="round" stroke-width="1.5" d="M18.333 4.258v9.467c0 1.208-.866 1.717-1.925 1.133l-3.075-1.716v-5.65A2.6 2.6 0 0 0 10.742 4.9H6.667v-.642a2.6 2.6 0 0 1 2.591-2.591h6.484a2.6 2.6 0 0 1 2.591 2.591Z"/>
  <path stroke="#CC9C53" stroke-linecap="round" stroke-linejoin="round" stroke-width="1.5" d="M1.667 16.958c0 1.209.866 1.717 1.925 1.134l3.275-1.825c.35-.192.916-.192 1.266 0l3.275 1.825c1.059.583 1.925.075 1.925-1.134V7.492A2.6 2.6 0 0 0 10.742 4.9H4.258a2.6 2.6 0 0 0-2.591 2.592v5.433"/>
</svg>
