<svg xmlns="http://www.w3.org/2000/svg" width="20" height="20" fill="none">
  <path stroke="#CC9C53" stroke-linecap="round" stroke-linejoin="round" stroke-width="1.5" d="m15.558 15.558 1.85-.925v-2.316M11.85 8.15 10 9.075l1.85-.925ZM10 9.075 8.15 8.15l1.85.925Zm0 0v2.317-2.317Zm7.408-3.708-1.85.925 1.85-.925Zm0 0-1.85-.925 1.85.925Zm0 0v2.316-2.316ZM11.85 2.592 10 1.667l-1.85.925h3.7ZM2.592 5.367l1.85-.925-1.85.925Zm0 0 1.85.925-1.85-.925Zm0 0v2.316-2.316ZM10 18.333l-1.85-.925 1.85.925Zm0 0 1.85-.925-1.85.925Zm0 0v-2.316 2.316Zm-5.558-2.775-1.85-.925v-2.316l1.85 3.241Z"/>
</svg>
