<svg xmlns="http://www.w3.org/2000/svg" width="62" height="62" fill="none">
  <path fill="#FFF5EF" d="M60 1.042H2.042a1 1 0 0 0-1 1v57.896a1 1 0 0 0 1 1H60a1 1 0 0 0 1-1V2.042a1 1 0 0 0-1-1Z"/>
  <path fill="#FBDCDF" d="M1.042 61s0-12.755 11.605-18.417c8.591-4.19 21.394-6.983 21.888-7.09a.534.534 0 0 0 .033-.008c.485-.13 10.727-2.876 12.875-4.495 2.2-1.68 5.938-1.93 8.242-11.843 1.755-7.481.353-14.006-.44-16.757-.196-.676.308-1.39 1.012-1.39H60a1 1 0 0 1 1 1v57.938"/>
  <path stroke="#1E1E1C" stroke-miterlimit="10" stroke-width=".334" d="M60 1.042H2.042a1 1 0 0 0-1 1v57.896a1 1 0 0 0 1 1H60a1 1 0 0 0 1-1V2.042a1 1 0 0 0-1-1Z"/>
</svg>
