<svg xmlns="http://www.w3.org/2000/svg" width="20" height="20" fill="none">
  <path stroke="#CC9C53" stroke-linecap="round" stroke-linejoin="round" stroke-miterlimit="10" stroke-width="1.5" d="M3.958 11.642a2.33 2.33 0 0 0 2.325 2.525h8.875c1.2 0 2.25-.984 2.342-2.175l.45-6.25c.1-1.384-.95-2.509-2.342-2.509H4.85M1.667 1.667h1.45c.9 0 1.608.774 1.533 1.666l-.417 5.042M13.542 18.333a1.042 1.042 0 1 0 0-2.083 1.042 1.042 0 0 0 0 2.083ZM6.875 18.333a1.042 1.042 0 1 0 0-2.083 1.042 1.042 0 0 0 0 2.083ZM7.5 6.667h10"/>
</svg>
